<svg preserveAspectRatio="none" overflow="visible" style="display: block;" width="85.3333" height="88" viewBox="0 0 85.3333 88" fill="none" xmlns="http://www.w3.org/2000/svg">
<g id="Container" opacity="0.1">
<path id="Icon" d="M21.3333 64C19.8667 64 18.6111 63.4778 17.5667 62.4333C16.5222 61.3889 16 60.1333 16 58.6667V21.3333C16 19.8667 16.5222 18.6111 17.5667 17.5667C18.6111 16.5222 19.8667 16 21.3333 16H58.6667C60.1333 16 61.3889 16.5222 62.4333 17.5667C63.4778 18.6111 64 19.8667 64 21.3333V26.6667H69.3333V32H64V37.3333H69.3333V42.6667H64V48H69.3333V53.3333H64V58.6667C64 60.1333 63.4778 61.3889 62.4333 62.4333C61.3889 63.4778 60.1333 64 58.6667 64H21.3333V64M21.3333 58.6667H58.6667V58.6667V58.6667V21.3333V21.3333V21.3333H21.3333V21.3333V21.3333V58.6667V58.6667V58.6667V58.6667M26.6667 53.3333H40V42.6667H26.6667V53.3333V53.3333M42.6667 34.6667H53.3333V26.6667H42.6667V34.6667V34.6667M26.6667 40H40V26.6667H26.6667V40V40M42.6667 53.3333H53.3333V37.3333H42.6667V53.3333V53.3333M21.3333 21.3333V21.3333V21.3333V21.3333V58.6667V58.6667V58.6667V58.6667V58.6667V58.6667V21.3333V21.3333V21.3333V21.3333" fill="#E5E2E1"/>
</g>
</svg>
